<svg width="464" height="68" viewBox="0 0 464 68" fill="none" xmlns="http://www.w3.org/2000/svg">
<g clip-path="url(#clip0_1_234)">
<path d="M98.7143 39.2126C98.8063 44.1026 101.705 45.9176 106.445 45.9176C110.463 45.9176 115.356 44.7626 115.356 39.9326C115.356 36.5875 112.518 35.1925 109.573 34.6225C103.745 33.3775 94.0516 32.0875 94.0516 24.3324C94.0516 16.5773 101.046 14.0423 107.656 14.0423C113.684 14.0423 119.604 16.6823 119.604 23.3874H114.466C114.267 19.5024 110.939 18.1673 107.411 18.1673C103.883 18.1673 99.1897 19.4124 99.1897 23.5374C99.1897 27.6624 102.027 27.7074 105.11 28.6675C111.613 30.7225 120.479 30.7225 120.479 39.4376C120.479 47.2977 113.285 50.0727 106.138 50.0727C98.9903 50.0727 93.3614 47.0127 93.5608 39.2576H98.6989L98.7143 39.2126Z" fill="#CC1C22"/>
<path d="M127.534 14.7473H133.071V19.6823H127.534V14.7473V14.7473ZM127.979 49.3077V25.2774H132.626V49.3077H127.979Z" fill="#CC1C22"/>
<path d="M145.939 28.7274H146.031C147.504 25.7124 150.541 24.5574 153.026 24.5574C157.673 24.5574 160.418 26.0874 161.691 29.0574C163.455 26.0874 166.247 24.5574 169.866 24.5574C175.541 24.5574 179.023 28.0524 179.023 32.3575V49.3076H174.376V35.0875C174.376 31.7875 173.885 28.0524 168.455 28.0524C167.044 28.0524 163.9 28.8174 163.026 31.7875C162.397 33.9925 162.535 36.3925 162.535 36.9625V49.3076H157.888V35.0875C157.888 30.9174 156.906 28.0524 152.458 28.0524C150.556 28.0524 147.811 28.7724 146.384 31.9825C145.847 33.2275 146.047 36.3925 146.047 36.9625V49.3076H141.399V25.2774H145.955V28.7274H145.939Z" fill="#CC1C22"/>
<path d="M187.49 29.5974C187.444 28.1574 187.336 26.7174 187.244 25.2924H191.999L192.152 29.1174H192.244C193.671 25.6674 196.754 24.5724 200.619 24.5724C207.521 24.5724 210.941 30.7975 210.941 37.3075C210.941 43.8176 207.996 50.0427 199.146 50.0427C197.137 50.0427 193.901 49.0827 192.29 46.5926H192.137V58.5178H187.49V29.5974V29.5974ZM199.085 27.8724C193.793 27.8724 192.137 32.9425 192.137 37.3075C192.137 41.6726 193.456 46.7426 198.64 46.7426C204.315 46.7426 206.033 41.8076 206.033 37.3075C206.033 32.8075 204.668 27.8724 199.085 27.8724Z" fill="#CC1C22"/>
<path d="M217.674 49.3227V14.7473H222.322V49.3077H217.674V49.3227Z" fill="#CC1C22"/>
<path d="M234.178 38.1625C233.841 42.3776 235.604 46.7276 240.344 46.7276C243.964 46.7276 245.773 45.3326 246.31 41.8376H251.203C250.467 47.2976 246.157 50.0276 240.282 50.0276C232.399 50.0276 229.27 44.5676 229.27 37.4875C229.27 30.4074 232.89 24.5574 240.681 24.5574C248.028 24.7074 251.494 29.2524 251.494 35.9125V38.1625H234.163H234.178ZM246.617 34.9975C246.709 30.9774 244.853 27.8574 240.344 27.8574C236.479 27.8574 234.178 31.0674 234.178 34.9975H246.617V34.9975Z" fill="#CC1C22"/>
<path d="M267.354 50.0427C261.725 50.0427 256.97 46.0226 256.832 40.3226H260.252C260.344 45.6326 264.363 47.1626 269.118 47.1626C273.09 47.1626 277.63 44.9126 277.63 40.5026C277.63 37.0525 275.084 35.4325 272.093 34.4725C266.372 32.6125 257.645 30.8275 257.645 23.3724C257.645 17.3423 263.32 14.0273 268.903 14.0273C273.55 14.0273 279.624 15.6023 280.406 22.2624H276.986C276.894 18.0023 272.921 16.9073 269.302 16.9073C265.682 16.9073 261.081 18.7223 261.081 22.9374C261.081 32.7475 281.05 28.2924 281.05 40.2176C281.05 47.7326 274.44 50.0277 267.338 50.0277L267.354 50.0427Z" fill="#CC1C22"/>
<path d="M308.965 37.3075C308.965 43.6226 305.345 50.0427 297.508 50.0427C289.67 50.0427 286.051 43.6226 286.051 37.3075C286.051 30.9925 289.67 24.5724 297.508 24.5724C305.345 24.5724 308.965 30.9925 308.965 37.3075V37.3075ZM297.508 27.2124C291.587 27.2124 289.241 32.8675 289.241 37.3075C289.241 41.7476 291.587 47.4176 297.508 47.4176C303.428 47.4176 305.775 41.7626 305.775 37.3075C305.775 32.8525 303.428 27.2124 297.508 27.2124V27.2124Z" fill="#CC1C22"/>
<path d="M318.015 49.3227H315.07V14.7473H318.015V49.3077V49.3227Z" fill="#CC1C22"/>
<path d="M342.34 25.2774H345.27V43.9076C345.27 45.7826 345.423 47.6876 345.515 49.3226H342.478L342.325 45.7826L342.233 45.6926C340.515 48.6626 337.724 50.0576 334.549 50.0576C326.512 50.0576 325.883 43.1126 325.883 40.3375V25.3074H328.828V40.8175C328.828 44.9876 331.282 47.4326 335.285 47.4326C340.132 47.4326 342.34 43.4576 342.34 39.1525V25.3074V25.2774Z" fill="#CC1C22"/>
<path d="M355.209 27.9174H350.316V25.2774H355.209V20.1474L358.154 18.9023V25.2774H363.737V27.9174H358.154V44.0126C358.108 46.2176 359.273 47.4177 361.528 47.4177C362.402 47.4177 363.292 47.3727 364.074 47.1327V49.6227C363.138 49.8627 362.065 50.0577 361.083 50.0577C354.871 50.0577 355.209 46.1726 355.209 42.9176V27.9324V27.9174Z" fill="#CC1C22"/>
<path d="M372.633 18.3473H369.212V14.7623H372.633V18.3473ZM372.387 25.2924V49.3227H369.442V25.2774H372.387V25.2924Z" fill="#CC1C22"/>
<path d="M401.406 37.3075C401.406 43.6226 397.787 50.0427 389.949 50.0427C382.111 50.0427 378.492 43.6226 378.492 37.3075C378.492 30.9925 382.111 24.5724 389.949 24.5724C397.787 24.5724 401.406 30.9925 401.406 37.3075V37.3075ZM389.949 27.2124C384.029 27.2124 381.682 32.8675 381.682 37.3075C381.682 41.7476 384.029 47.4176 389.949 47.4176C395.869 47.4176 398.216 41.7626 398.216 37.3075C398.216 32.8525 395.869 27.2124 389.949 27.2124V27.2124Z" fill="#CC1C22"/>
<path d="M410.41 49.3226H407.465V30.6924C407.465 28.8324 407.311 26.9124 407.219 25.2774H410.256L410.41 28.8174L410.502 28.9074C412.22 25.9374 415.011 24.5424 418.186 24.5424C426.208 24.5424 426.852 31.4874 426.852 34.2625V49.2926H423.907V33.7825C423.907 29.6124 421.453 27.1824 417.45 27.1824C412.603 27.1824 410.394 31.1574 410.394 35.4625V49.2926L410.41 49.3226Z" fill="#CC1C22"/>
<path d="M442.864 24.5724C447.512 24.5724 451.438 26.1474 451.822 31.2325H448.647C448.355 28.2174 445.61 27.2124 442.573 27.2124C439.828 27.2124 437.036 28.2624 437.036 31.0975C437.036 34.6375 441.791 34.3075 448.447 36.6025C450.994 37.4575 452.604 39.6175 452.604 42.1976C452.604 47.6126 447.466 50.0577 442.282 50.0577C438.018 50.0577 433.125 48.0926 433.033 42.7826H436.223C436.469 46.3676 439.705 47.4326 443.033 47.4326C446.162 47.4326 449.444 45.9926 449.444 42.6476C449.444 39.3025 445.579 38.6275 441.653 37.7575C437.788 36.8425 433.877 35.7475 433.877 31.2925C433.877 26.3124 438.57 24.5874 442.88 24.5874L442.864 24.5724Z" fill="#CC1C22"/>
<path d="M460.089 49.3226V45.1976H464V49.3226H460.089Z" fill="#CC1C22"/>
<path d="M67.7779 67.1428H0V0.857117H67.7779V67.1428ZM2.45405 64.7428H65.3238V3.25714H2.45405V64.7428Z" fill="#CC1C22"/>
<path d="M38.8047 27.7074C38.6973 27.9024 38.5746 28.0374 38.4519 28.1274C38.3292 28.2174 38.1759 28.2624 37.9765 28.2624C37.7771 28.2624 37.5623 28.1874 37.3476 28.0524C37.1176 27.9174 36.8415 27.7524 36.5347 27.5874C36.2126 27.4074 35.8445 27.2574 35.4304 27.1224C35.0009 26.9724 34.5101 26.9124 33.9273 26.9124C33.4058 26.9124 32.9457 26.9724 32.5622 27.0924C32.1634 27.2124 31.8413 27.3924 31.5806 27.6024C31.3199 27.8274 31.1205 28.0824 30.9824 28.3824C30.8444 28.6824 30.783 29.0274 30.783 29.3874C30.783 29.8524 30.9211 30.2425 31.1818 30.5425C31.4426 30.8575 31.7953 31.1125 32.2401 31.3375C32.6849 31.5625 33.1757 31.7575 33.7432 31.9225C34.2954 32.1025 34.8782 32.2825 35.4611 32.4775C36.0439 32.6725 36.6267 32.8975 37.1789 33.1675C37.7311 33.4225 38.2372 33.7525 38.6667 34.1575C39.1115 34.5475 39.4489 35.0425 39.725 35.6125C39.9857 36.1825 40.1238 36.8875 40.1238 37.6975C40.1238 38.5975 39.9704 39.4226 39.6636 40.2026C39.3569 40.9826 38.8967 41.6576 38.2986 42.2426C37.7004 42.8276 36.9642 43.2776 36.1053 43.6076C35.2463 43.9376 34.2494 44.1026 33.1297 44.1026C32.4855 44.1026 31.8567 44.0426 31.2278 43.9226C30.599 43.8026 30.0008 43.6226 29.4333 43.3976C28.8658 43.1726 28.329 42.9026 27.8228 42.5726C27.3167 42.2576 26.8719 41.8976 26.4884 41.5076L27.5928 39.7376C27.6848 39.6026 27.8075 39.4976 27.9609 39.4226C28.1142 39.3325 28.2676 39.2876 28.4363 39.2876C28.6664 39.2876 28.9271 39.3776 29.1879 39.5726C29.464 39.7526 29.7861 39.9626 30.1542 40.1876C30.5223 40.4126 30.9671 40.6226 31.4579 40.8176C31.9487 41.0126 32.5622 41.1026 33.2524 41.1026C34.3261 41.1026 35.1543 40.8476 35.7371 40.3526C36.32 39.8576 36.6114 39.1375 36.6114 38.2075C36.6114 37.6825 36.4734 37.2625 36.2126 36.9325C35.9519 36.6025 35.5991 36.3325 35.1543 36.1075C34.7095 35.8825 34.2187 35.7025 33.6512 35.5375C33.099 35.3875 32.5315 35.2075 31.9487 35.0275C31.3659 34.8475 30.7984 34.6225 30.2462 34.3675C29.694 34.1125 29.1879 33.7825 28.7584 33.3625C28.3136 32.9575 27.9609 32.4475 27.7001 31.8325C27.4394 31.2175 27.3013 30.4525 27.3013 29.5524C27.3013 28.8324 27.4547 28.1274 27.7461 27.4524C28.0376 26.7624 28.467 26.1624 29.0192 25.6374C29.5713 25.1124 30.2615 24.6924 31.0898 24.3624C31.9027 24.0474 32.8536 23.8824 33.9119 23.8824C35.1083 23.8824 36.1973 24.0624 37.2096 24.4224C38.2219 24.7824 39.0655 25.2924 39.7863 25.9524L38.8507 27.6924L38.8047 27.7074Z" fill="#CC1C22"/>
<path d="M41.4735 42.0926C41.4735 41.8076 41.5195 41.5376 41.6269 41.2826C41.7343 41.0276 41.8876 40.8026 42.0717 40.6226C42.2557 40.4426 42.4858 40.2926 42.7466 40.1876C43.0073 40.0826 43.2834 40.0226 43.5901 40.0226C43.8969 40.0226 44.173 40.0826 44.4184 40.1876C44.6791 40.2926 44.8938 40.4426 45.0932 40.6226C45.2773 40.8026 45.4307 41.0276 45.5534 41.2826C45.6607 41.5376 45.7221 41.8076 45.7221 42.0926C45.7221 42.3776 45.6607 42.6626 45.5534 42.9026C45.446 43.1576 45.2926 43.3676 45.0932 43.5476C44.9092 43.7276 44.6791 43.8776 44.4184 43.9826C44.1576 44.0876 43.8815 44.1326 43.5901 44.1326C43.2987 44.1326 43.0073 44.0726 42.7466 43.9826C42.4858 43.8776 42.2557 43.7276 42.0717 43.5476C41.8876 43.3676 41.7343 43.1426 41.6269 42.9026C41.5195 42.6476 41.4735 42.3776 41.4735 42.0926Z" fill="#CC1C22"/>
</g>
<defs>
<clipPath id="clip0_1_234">
<rect width="464" height="66.2857" fill="white" transform="translate(0 0.857117)"/>
</clipPath>
</defs>
</svg>
