<svg width="68" height="68" viewBox="0 0 68 68" fill="none" xmlns="http://www.w3.org/2000/svg">
<path d="M67.7779 67.1428H0V0.857117H67.7779V67.1428ZM2.45405 64.7428H65.3238V3.25714H2.45405V64.7428Z" fill="#CC1C22"/>
<path d="M38.8047 27.7074C38.6973 27.9024 38.5746 28.0374 38.4519 28.1274C38.3292 28.2174 38.1759 28.2624 37.9765 28.2624C37.7771 28.2624 37.5623 28.1874 37.3476 28.0524C37.1176 27.9174 36.8415 27.7524 36.5347 27.5874C36.2126 27.4074 35.8445 27.2574 35.4304 27.1224C35.0009 26.9724 34.5101 26.9124 33.9273 26.9124C33.4058 26.9124 32.9457 26.9724 32.5622 27.0924C32.1634 27.2124 31.8413 27.3924 31.5806 27.6024C31.3199 27.8274 31.1205 28.0824 30.9824 28.3824C30.8444 28.6824 30.783 29.0274 30.783 29.3874C30.783 29.8524 30.9211 30.2425 31.1818 30.5425C31.4426 30.8575 31.7953 31.1125 32.2401 31.3375C32.6849 31.5625 33.1757 31.7575 33.7432 31.9225C34.2954 32.1025 34.8782 32.2825 35.4611 32.4775C36.0439 32.6725 36.6267 32.8975 37.1789 33.1675C37.7311 33.4225 38.2372 33.7525 38.6667 34.1575C39.1115 34.5475 39.4489 35.0425 39.725 35.6125C39.9857 36.1825 40.1238 36.8875 40.1238 37.6975C40.1238 38.5975 39.9704 39.4226 39.6636 40.2026C39.3569 40.9826 38.8967 41.6576 38.2986 42.2426C37.7004 42.8276 36.9642 43.2776 36.1053 43.6076C35.2463 43.9376 34.2494 44.1026 33.1297 44.1026C32.4855 44.1026 31.8567 44.0426 31.2278 43.9226C30.599 43.8026 30.0008 43.6226 29.4333 43.3976C28.8658 43.1726 28.329 42.9026 27.8228 42.5726C27.3167 42.2576 26.8719 41.8976 26.4884 41.5076L27.5928 39.7376C27.6848 39.6026 27.8075 39.4976 27.9609 39.4226C28.1142 39.3325 28.2676 39.2876 28.4363 39.2876C28.6664 39.2876 28.9271 39.3776 29.1879 39.5726C29.464 39.7526 29.7861 39.9626 30.1542 40.1876C30.5223 40.4126 30.9671 40.6226 31.4579 40.8176C31.9487 41.0126 32.5622 41.1026 33.2524 41.1026C34.3261 41.1026 35.1543 40.8476 35.7371 40.3526C36.32 39.8576 36.6114 39.1375 36.6114 38.2075C36.6114 37.6825 36.4734 37.2625 36.2126 36.9325C35.9519 36.6025 35.5991 36.3325 35.1543 36.1075C34.7095 35.8825 34.2187 35.7025 33.6512 35.5375C33.099 35.3875 32.5315 35.2075 31.9487 35.0275C31.3659 34.8475 30.7984 34.6225 30.2462 34.3675C29.694 34.1125 29.1879 33.7825 28.7584 33.3625C28.3136 32.9575 27.9609 32.4475 27.7001 31.8325C27.4394 31.2175 27.3013 30.4525 27.3013 29.5524C27.3013 28.8324 27.4547 28.1274 27.7461 27.4524C28.0376 26.7624 28.467 26.1624 29.0192 25.6374C29.5713 25.1124 30.2615 24.6924 31.0898 24.3624C31.9027 24.0474 32.8536 23.8824 33.9119 23.8824C35.1083 23.8824 36.1973 24.0624 37.2096 24.4224C38.2219 24.7824 39.0655 25.2924 39.7863 25.9524L38.8507 27.6924L38.8047 27.7074Z" fill="#CC1C22"/>
<path d="M41.4735 42.0926C41.4735 41.8076 41.5195 41.5376 41.6269 41.2826C41.7343 41.0276 41.8876 40.8026 42.0717 40.6226C42.2557 40.4426 42.4858 40.2926 42.7466 40.1876C43.0073 40.0826 43.2834 40.0226 43.5901 40.0226C43.8969 40.0226 44.173 40.0826 44.4184 40.1876C44.6791 40.2926 44.8938 40.4426 45.0932 40.6226C45.2773 40.8026 45.4307 41.0276 45.5534 41.2826C45.6607 41.5376 45.7221 41.8076 45.7221 42.0926C45.7221 42.3776 45.6607 42.6626 45.5534 42.9026C45.446 43.1576 45.2926 43.3676 45.0932 43.5476C44.9092 43.7276 44.6791 43.8776 44.4184 43.9826C44.1576 44.0876 43.8815 44.1326 43.5901 44.1326C43.2987 44.1326 43.0073 44.0726 42.7466 43.9826C42.4858 43.8776 42.2557 43.7276 42.0717 43.5476C41.8876 43.3676 41.7343 43.1426 41.6269 42.9026C41.5195 42.6476 41.4735 42.3776 41.4735 42.0926Z" fill="#CC1C22"/>
</svg>
